<svg width="520" height="238" viewBox="0 0 520 238" fill="none" xmlns="http://www.w3.org/2000/svg" role="img" aria-labelledby="nanite-title nanite-desc">
  <title id="nanite-title">Nanites</title>
  <desc id="nanite-desc">Three animated nanite characters studying GitHub repository maintenance signals.</desc>

  <defs>
    <filter id="soft-shadow" x="-20%" y="-20%" width="140%" height="150%">
      <feDropShadow dx="0" dy="14" stdDeviation="14" flood-color="#0d1520" flood-opacity="0.12" />
    </filter>
  </defs>

  <rect x="1" y="1" width="518" height="236" rx="16" fill="#f8fafc" stroke="#dbe5ea" />
  <path d="M 32 54 H 488" stroke="#dbe5ea" stroke-width="1" stroke-dasharray="5 7" opacity="0.72" />
  <path d="M 32 184 H 488" stroke="#dbe5ea" stroke-width="1" stroke-dasharray="5 7" opacity="0.72" />

  <g filter="url(#soft-shadow)">
    <g transform="translate(260 50)">
      <rect x="-68" y="-19" width="136" height="74" rx="7" fill="#1e2d3d" stroke="#3a5068" stroke-width="2" />
      <circle cx="-54" cy="-8" r="3.2" fill="#c87832" />
      <circle cx="-42" cy="-8" r="3.2" fill="#d4a636" />
      <circle cx="-30" cy="-8" r="3.2" fill="#0f7b6c" />
      <rect x="-54" y="12" width="66" height="5" rx="2.5" fill="#2e3d50" />
      <rect x="-54" y="26" width="44" height="5" rx="2.5" fill="#2e3d50" />
      <rect x="-54" y="40" width="57" height="5" rx="2.5" fill="#2e3d50" />
      <rect x="-54" y="54" width="38" height="8" rx="4" fill="#2d5a8a" opacity="0.52" />

      <rect x="-58" y="6" width="13" height="54" rx="6.5" fill="#7eb8c9" opacity="0">
        <animate attributeName="x" values="-58;45;45" keyTimes="0;0.76;1" dur="2.8s" repeatCount="indefinite" />
        <animate attributeName="opacity" values="0;0.5;0" keyTimes="0;0.44;1" dur="2.8s" repeatCount="indefinite" />
      </rect>

      <g>
        <path d="M 16 41 L 32 25 L 49 41" stroke="#7eb8c9" stroke-width="2.8" stroke-linecap="round" stroke-linejoin="round" />
        <circle cx="16" cy="41" r="5" fill="#0f7b6c">
          <animate attributeName="r" values="5;6.4;5" dur="1.35s" begin="0s" repeatCount="indefinite" />
        </circle>
        <circle cx="32" cy="25" r="5" fill="#d4a636">
          <animate attributeName="r" values="5;6.4;5" dur="1.35s" begin="0.22s" repeatCount="indefinite" />
        </circle>
        <circle cx="49" cy="41" r="5" fill="#2d5a8a">
          <animate attributeName="r" values="5;6.4;5" dur="1.35s" begin="0.44s" repeatCount="indefinite" />
        </circle>
      </g>

      <animateTransform attributeName="transform" type="translate" additive="sum" values="0 0;0 -2;0 0" dur="3.2s" repeatCount="indefinite" />
    </g>

    <g transform="translate(302 120)">
      <animateTransform attributeName="transform" type="rotate" additive="sum" values="-8 0 0;8 0 0;-8 0 0" dur="1.25s" repeatCount="indefinite" />
      <circle cx="0" cy="0" r="14" fill="none" stroke="#8ba7b8" stroke-width="3" />
      <line x1="10" y1="10" x2="22" y2="22" stroke="#8ba7b8" stroke-width="4" stroke-linecap="round" />
    </g>

    <g opacity="0.1" fill="#0d1520">
      <ellipse cx="140" cy="196" rx="39" ry="6" />
      <ellipse cx="260" cy="196" rx="39" ry="6" />
      <ellipse cx="380" cy="196" rx="39" ry="6" />
    </g>

    <g transform="translate(140 154)">
      <animateTransform attributeName="transform" type="translate" additive="sum" values="0 0;0 -6;0 0" dur="1.9s" begin="0s" repeatCount="indefinite" />
      <rect x="-31" y="-44" width="62" height="74" rx="17" fill="#0f7b6c" />
      <circle cx="-12" cy="-17" r="9.5" fill="#0d1520" />
      <circle cx="12" cy="-17" r="9.5" fill="#0d1520" />
      <circle cx="-9" cy="-21" r="3.2" fill="white" opacity="0.45" />
      <circle cx="15" cy="-21" r="3.2" fill="white" opacity="0.45" />
      <rect x="-25" y="27" width="19" height="11" rx="5.5" fill="#0f7b6c" opacity="0.7" />
      <rect x="6" y="27" width="19" height="11" rx="5.5" fill="#0f7b6c" opacity="0.7" />
      <g opacity="0.15">
        <path d="M -20 -48 Q -18 -64 0 -64 Q 18 -64 20 -48 Z" fill="#d4a636" />
        <rect x="-25" y="-51" width="50" height="8" rx="4" fill="#c49525" />
      </g>
    </g>

    <g transform="translate(260 154)">
      <animateTransform attributeName="transform" type="translate" additive="sum" values="0 0;0 -6;0 0" dur="1.9s" begin="0.18s" repeatCount="indefinite" />
      <rect x="-31" y="-44" width="62" height="74" rx="17" fill="#2d5a8a" />
      <circle cx="-12" cy="-17" r="9.5" fill="#0d1520" />
      <circle cx="12" cy="-17" r="9.5" fill="#0d1520" />
      <circle cx="-9" cy="-21" r="3.2" fill="white" opacity="0.45" />
      <circle cx="15" cy="-21" r="3.2" fill="white" opacity="0.45" />
      <rect x="-25" y="27" width="19" height="11" rx="5.5" fill="#2d5a8a" opacity="0.7" />
      <rect x="6" y="27" width="19" height="11" rx="5.5" fill="#2d5a8a" opacity="0.7" />
      <g>
        <path d="M -20 -48 Q -18 -64 0 -64 Q 18 -64 20 -48 Z" fill="#d4a636" />
        <rect x="-25" y="-51" width="50" height="8" rx="4" fill="#c49525" />
        <circle cx="0" cy="-58" r="4.5" fill="#f0d060" />
        <animateTransform attributeName="transform" type="translate" values="0 -12;0 0;0 0;0 -12" keyTimes="0;0.16;0.74;1" dur="3.2s" repeatCount="indefinite" />
        <animate attributeName="opacity" values="0;1;1;0" keyTimes="0;0.16;0.74;1" dur="3.2s" repeatCount="indefinite" />
      </g>
    </g>

    <g transform="translate(380 154)">
      <animateTransform attributeName="transform" type="translate" additive="sum" values="0 0;0 -6;0 0" dur="1.9s" begin="0.36s" repeatCount="indefinite" />
      <rect x="-31" y="-44" width="62" height="74" rx="17" fill="#7eb8c9" />
      <circle cx="-12" cy="-17" r="9.5" fill="#0d1520" />
      <circle cx="12" cy="-17" r="9.5" fill="#0d1520" />
      <circle cx="-9" cy="-21" r="3.2" fill="white" opacity="0.45" />
      <circle cx="15" cy="-21" r="3.2" fill="white" opacity="0.45" />
      <rect x="-25" y="27" width="19" height="11" rx="5.5" fill="#7eb8c9" opacity="0.7" />
      <rect x="6" y="27" width="19" height="11" rx="5.5" fill="#7eb8c9" opacity="0.7" />
      <g opacity="0.18">
        <path d="M -20 -48 Q -18 -64 0 -64 Q 18 -64 20 -48 Z" fill="#d4a636" />
        <rect x="-25" y="-51" width="50" height="8" rx="4" fill="#c49525" />
      </g>
    </g>
  </g>
</svg>
